<svg width="45" height="45" viewBox="0 0 45 45" fill="none" xmlns="http://www.w3.org/2000/svg">
<g clip-path="url(#clip0_371_1526)">
<path d="M24.8532 35.5448C24.9052 35.8024 25.1462 35.9579 25.3967 35.9045C30.7889 34.7186 36.2568 34.7186 41.6585 35.9045C41.6869 35.9142 41.7247 35.9142 41.753 35.9142C41.9657 35.9142 42.1547 35.7587 42.1973 35.54C42.2493 35.2824 42.0886 35.0394 41.8475 34.9811C36.323 33.7661 30.7181 33.7661 25.1982 34.9811C24.9572 35.0394 24.7965 35.2921 24.8532 35.5497V35.5448Z" fill="url(#paint0_linear_371_1526)"/>
<path d="M28.7954 32.5656C31.3805 32.2352 34.0081 32.1768 36.5931 32.3907C36.8436 32.415 37.0657 32.2206 37.0894 31.9582C37.113 31.7006 36.924 31.4722 36.6688 31.4479C34.0175 31.2292 31.3332 31.2875 28.682 31.6228C28.4315 31.652 28.2519 31.8901 28.2803 32.1428C28.3086 32.3761 28.5071 32.5559 28.7292 32.5559C28.7576 32.5754 28.7812 32.5656 28.7954 32.5656Z" fill="url(#paint1_linear_371_1526)"/>
<path d="M25.2977 33.1682C25.326 33.1682 25.3638 33.1682 25.3922 33.1585C25.8979 33.0467 26.4224 32.9447 26.9328 32.8475C27.1833 32.8037 27.3487 32.5607 27.3062 32.3031C27.2636 32.0456 27.0273 31.8755 26.7769 31.9192C26.2523 32.0164 25.723 32.1185 25.2032 32.2351C24.9527 32.2886 24.7967 32.5364 24.8534 32.794C24.9054 33.0078 25.0897 33.1634 25.3024 33.1634L25.2977 33.1682Z" fill="url(#paint2_linear_371_1526)"/>
<path d="M12.3716 10.2825C12.1353 10.1853 11.8707 10.2971 11.7762 10.5401C11.6817 10.7831 11.7904 11.0553 12.0267 11.1525C14.5408 12.2119 16.7384 13.772 18.5578 15.7986C18.6524 15.9007 18.7705 15.9444 18.8934 15.9444C19.0068 15.9444 19.1155 15.9007 19.2006 15.818C19.3849 15.6431 19.3943 15.3466 19.2242 15.1571C17.3102 13.0284 15.004 11.3906 12.3716 10.2825Z" fill="url(#paint3_linear_371_1526)"/>
<path d="M8.74215 10.0883C9.14858 10.1855 9.55973 10.2972 9.95671 10.4139C9.99924 10.4285 10.0418 10.4382 10.0843 10.4382C10.2875 10.4382 10.4624 10.307 10.5238 10.098C10.5947 9.84526 10.4529 9.58768 10.2072 9.51478C9.7913 9.38842 9.3707 9.2815 8.94064 9.17458C8.6949 9.11626 8.44442 9.27664 8.38771 9.52936C8.34045 9.7675 8.48696 10.0251 8.74215 10.0834V10.0883Z" fill="url(#paint4_linear_371_1526)"/>
<path d="M8.94544 13.0965C8.69969 13.0381 8.44922 13.1985 8.39251 13.4512C8.3358 13.704 8.49175 13.9615 8.7375 14.0199C12.6742 14.9578 15.9823 16.8775 18.5532 19.7255C18.6477 19.8275 18.7659 19.8713 18.8887 19.8713C19.0022 19.8713 19.1108 19.8275 19.1959 19.7449C19.3802 19.57 19.3897 19.2735 19.2195 19.084C16.5211 16.0902 13.0617 14.0733 8.94544 13.0965Z" fill="url(#paint5_linear_371_1526)"/>
<path d="M8.94544 17.0283C8.69969 16.97 8.44922 17.1255 8.39251 17.3831C8.3358 17.6358 8.49175 17.8934 8.7375 17.9517C12.6742 18.8897 15.9823 20.8094 18.5532 23.6574C18.6477 23.7594 18.7659 23.8032 18.8887 23.8032C19.0022 23.8032 19.1108 23.7594 19.1959 23.6768C19.3802 23.5018 19.3897 23.2054 19.2195 23.0158C16.5211 20.0172 13.0617 18.0003 8.94544 17.0283Z" fill="url(#paint6_linear_371_1526)"/>
<path d="M15.028 23.424C14.8154 23.2928 14.5271 23.3657 14.3995 23.5844C14.2719 23.8031 14.3428 24.0995 14.5554 24.2308C16.0252 25.1347 17.3673 26.2622 18.5583 27.5744C18.6528 27.6765 18.7709 27.7202 18.8938 27.7202C19.0072 27.7202 19.1159 27.6765 19.201 27.5939C19.3853 27.4189 19.3948 27.1224 19.2246 26.9329C17.9864 25.5527 16.5687 24.3717 15.028 23.4191V23.424Z" fill="url(#paint7_linear_371_1526)"/>
<path d="M15.028 27.3508C14.8154 27.2195 14.5318 27.2924 14.3995 27.5111C14.2719 27.7298 14.3428 28.0263 14.5554 28.1575C16.0252 29.0615 17.3673 30.189 18.5583 31.5012C18.6528 31.6032 18.7709 31.647 18.8938 31.647C19.0072 31.647 19.1159 31.6032 19.201 31.5206C19.3853 31.3457 19.3948 31.0492 19.2246 30.8597C17.9864 29.4843 16.5687 28.3033 15.028 27.3459V27.3508Z" fill="url(#paint8_linear_371_1526)"/>
<path d="M12.7448 22.2966C11.6342 21.4995 10.4102 20.8726 8.99245 20.3769C8.8554 20.3234 8.69945 20.3526 8.57657 20.4352C8.4537 20.5227 8.38281 20.6636 8.38281 20.8191V25.2077C8.38281 25.3924 8.48206 25.5528 8.64746 25.6354C9.7486 26.1651 10.9301 26.7921 12.258 27.5648C12.3289 27.5988 12.4093 27.6231 12.4802 27.6231C12.5605 27.6231 12.6361 27.5988 12.707 27.5551C12.8488 27.4725 12.9339 27.3218 12.9339 27.1517V22.6902C12.9433 22.5347 12.863 22.3889 12.7401 22.3014L12.7448 22.2966ZM12.0265 26.3498C11.0529 25.7958 10.1503 25.3243 9.29964 24.9064V21.4898C10.3015 21.8883 11.2042 22.3598 12.0265 22.9235V26.3498Z" fill="url(#paint9_linear_371_1526)"/>
<path d="M26.9523 17.3782C27.3588 17.7961 27.7415 18.1898 28.0771 18.6272C28.441 19.1035 29.0081 20.0171 28.9561 20.9891C28.7529 21.0766 28.578 21.2078 28.4268 21.3876C28.1196 21.7327 27.9826 22.2041 28.0393 22.6707V22.6998C28.096 23.1421 28.3039 23.5309 28.5922 23.8274C28.5355 23.8808 28.4693 23.9246 28.4221 23.9877C28.1149 24.3328 27.9778 24.8042 28.0346 25.2708V25.2999C28.1622 26.2622 28.9656 26.9912 29.9107 26.9912H30.4542C30.6763 28.5318 31.9665 29.7177 33.5166 29.7177C35.0667 29.7177 36.3616 28.5318 36.579 26.9912H37.0941C38.0487 26.9815 38.871 26.2768 38.9986 25.3048V25.2659C39.0553 24.8042 38.9183 24.3279 38.6111 23.978C38.5591 23.9197 38.4977 23.8662 38.441 23.8176C38.734 23.5212 38.9419 23.1421 38.9986 22.6998V22.661C39.0553 22.1993 38.9183 21.723 38.6111 21.3731C38.4599 21.203 38.2803 21.062 38.0818 20.9745C38.0298 19.9928 38.5875 19.0889 38.9561 18.6126C39.2916 18.1801 39.6744 17.7815 40.0809 17.3684C40.4259 17.0137 40.7756 16.654 41.1064 16.2555C42.6612 14.365 43.441 11.7649 43.2 9.296C42.9495 6.83198 41.6688 4.45059 39.769 2.92941C37.7794 1.33048 35.2699 1 33.5166 1C31.7633 1 29.2538 1.3402 27.2642 2.92941C25.3644 4.45545 24.079 6.83198 23.8332 9.296C23.5828 11.76 24.3625 14.365 25.9268 16.2555C26.2482 16.6637 26.6026 17.0282 26.9429 17.3782H26.9523ZM37.458 21.7959C37.6659 21.7862 37.8219 21.8688 37.9542 22.0146C38.0818 22.1604 38.1385 22.3596 38.1102 22.554V22.5832C38.044 23.0838 37.6234 23.4434 37.1225 23.4531H29.9344C29.4476 23.4531 29.0223 23.0838 28.9608 22.5832V22.554C28.9325 22.3548 28.9939 22.1652 29.1168 22.0146C29.2444 21.8688 29.4192 21.7862 29.6177 21.7959H37.458ZM33.5213 20.8482H32.5242C32.3729 18.5008 31.8814 16.0465 31.0733 13.6311C31.1395 13.6457 31.2009 13.6603 31.2576 13.6651C31.7633 13.7332 32.3162 13.5339 32.7699 13.1257C32.9211 12.9944 33.0487 12.8486 33.1716 12.6931C33.3937 12.9896 33.7009 13.2229 34.0601 13.3638C34.5846 13.5631 35.2085 13.5339 35.8134 13.2666C35.8559 13.252 35.8984 13.2326 35.9363 13.2083C35.1187 15.6286 34.6697 18.2821 34.6555 20.8433H33.526L33.5213 20.8482ZM33.5213 28.7797C32.4769 28.7797 31.5979 28.0167 31.3852 26.9961H35.6622C35.4495 28.0118 34.5752 28.7797 33.5213 28.7797ZM38.1054 25.1639V25.193C38.0393 25.6936 37.6187 26.063 37.1272 26.063H29.9391H29.9296C29.4429 26.063 29.0175 25.6936 28.9561 25.193V25.1639C28.9278 24.9646 28.9892 24.7751 29.1121 24.6244C29.2397 24.4786 29.4192 24.4057 29.6177 24.4057H37.4485C37.6565 24.396 37.8124 24.4786 37.9448 24.6244C38.0676 24.7653 38.1291 24.9646 38.1054 25.1639ZM24.7548 9.41264C24.9769 7.19648 26.13 5.06295 27.8408 3.69243C29.6225 2.25874 31.9145 1.96228 33.526 1.96228C35.1376 1.96228 37.4296 2.2636 39.2113 3.69243C40.9221 5.06295 42.0752 7.19648 42.2973 9.41264C42.5194 11.6288 41.8153 13.9713 40.4211 15.6626C40.1187 16.0222 39.7973 16.3624 39.4523 16.7172C39.0459 17.1352 38.63 17.5628 38.2567 18.044C37.5572 18.9625 37.1744 19.9442 37.1744 20.8579L35.5865 20.8482C35.6102 17.9225 36.2104 14.8753 37.2973 12.2168C37.3777 12.0176 37.3209 11.7989 37.1555 11.6628C36.9901 11.5316 36.7633 11.5316 36.5979 11.6531C36.2387 11.9301 35.8654 12.2217 35.4684 12.3918C35.2416 12.489 34.7926 12.6348 34.3862 12.4744C34.0364 12.3432 33.7576 12.0127 33.7104 11.6871C33.682 11.4976 33.545 11.3323 33.3606 11.2886C33.1763 11.2449 32.9826 11.3226 32.8786 11.4879C32.6707 11.8183 32.4485 12.1634 32.1792 12.4064C31.9192 12.6348 31.6262 12.7514 31.3758 12.7223C31.1536 12.6931 30.9126 12.5376 30.7189 12.2946C30.5535 12.0856 30.4589 11.8766 30.3408 11.6094L30.2557 11.4247C30.147 11.1963 29.8824 11.0942 29.6555 11.1963C29.4287 11.2983 29.3247 11.5705 29.4287 11.8086C30.6763 14.7926 31.4183 17.8982 31.6121 20.8336L29.8871 20.8433C29.8777 19.9296 29.509 18.9528 28.8001 18.0294C28.4268 17.5434 28.0109 17.1157 27.6045 16.6978C27.2595 16.343 26.9381 16.0125 26.6357 15.6529C25.2463 13.9664 24.5421 11.6239 24.7642 9.40778L24.7548 9.41264Z" fill="url(#paint10_linear_371_1526)"/>
<path d="M26.6777 13.043C26.9282 13.0187 27.1172 12.7854 27.0841 12.5278C27.0321 11.9738 26.9896 11.5218 26.9707 11.0407C26.9565 10.7831 26.7344 10.579 26.4887 10.5887C26.2382 10.6033 26.0397 10.8171 26.0492 11.0844C26.0728 11.6239 26.1295 12.1731 26.1626 12.625C26.1862 12.868 26.3847 13.0527 26.621 13.0527C26.6446 13.0479 26.6588 13.0479 26.673 13.0479L26.6777 13.043Z" fill="url(#paint11_linear_371_1526)"/>
<path d="M26.5261 9.62644C26.5261 9.62644 26.5781 9.63616 26.597 9.63616C26.8191 9.63616 27.0129 9.47579 27.0459 9.23765C27.0601 9.16961 27.0696 9.09671 27.079 9.02867C27.4807 6.93887 29.0781 5.05806 31.044 4.35822C31.2803 4.27074 31.4079 4.00344 31.3229 3.76044C31.2378 3.51744 30.9779 3.38622 30.7416 3.4737C28.4732 4.28532 26.6395 6.44801 26.1716 8.84885C26.1575 8.93147 26.1433 9.00923 26.1291 9.08213C26.096 9.33484 26.2662 9.57298 26.5166 9.61672L26.5261 9.62644Z" fill="url(#paint12_linear_371_1526)"/>
<path d="M45 39.5301C44.8866 33.7467 44.9291 27.8078 44.9669 22.0633C44.9811 19.2785 45 16.5035 45 13.7333C45 13.4757 44.7921 13.2618 44.5416 13.2618C44.2911 13.2618 44.0832 13.4757 44.0832 13.7333C44.0832 16.5035 44.0595 19.2785 44.0501 22.0633C44.017 27.6085 43.9792 33.3287 44.0784 38.9177C37.0699 36.9591 29.9716 36.9591 22.9631 38.9177V13.743V13.7333V13.3736C22.9631 13.2618 22.9301 13.1549 22.8544 13.0723C18.1427 7.36668 12.5567 4.29517 5.28355 3.39607C5.15595 3.38149 5.02363 3.42523 4.92439 3.51271C4.82514 3.60019 4.76843 3.73141 4.76843 3.86749V30.0823C4.76843 30.3155 4.93856 30.5245 5.17013 30.544C11.7155 31.3459 16.8195 33.9459 21.1295 38.6747C14.414 36.9591 7.6276 37.0418 0.916824 38.9177C1.01607 33.3287 0.982987 27.6134 0.94518 22.0779C0.92155 19.2882 0.912098 16.5035 0.912098 13.7284C1.63043 13.5194 2.33932 13.3396 3.0293 13.1841C3.27505 13.1258 3.431 12.873 3.37902 12.6252C3.32231 12.3725 3.07656 12.2121 2.83554 12.2655C2.01323 12.4502 1.1673 12.6689 0.330813 12.9216C0.137051 12.98 0 13.1646 0 13.3736C0 16.2653 0.0236295 19.1764 0.0330813 22.0876C0.0756144 27.8321 0.118147 33.771 0.0047259 39.5447V42.5433C0.0047259 42.6891 0.0708885 42.83 0.18431 42.9175C0.26465 42.9758 0.363894 43.0147 0.453686 43.0147C0.496219 43.0147 0.538752 43.005 0.581285 43.0001C7.81664 40.8666 15.1465 40.8666 22.3677 43.0001H22.3913C22.4244 43.0098 22.4622 43.0098 22.5 43.0098C22.5378 43.0098 22.5709 43.0098 22.6087 43.0001H22.6323C29.8582 40.8666 37.1928 40.8666 44.4234 43.0001C44.466 43.0147 44.5085 43.0147 44.551 43.0147C44.6503 43.0147 44.7448 42.9855 44.8204 42.9175C44.9338 42.83 45 42.6891 45 42.5433V39.5447V39.5301ZM5.68526 29.6643V4.39723C12.4149 5.33521 17.6276 8.2512 22.0463 13.5437V38.2956C17.6229 33.3336 12.3866 30.5683 5.68526 29.6643ZM0.92155 41.9017V39.8994C7.93951 37.8874 15.0425 37.8874 22.0463 39.8994V41.9017C15.0378 39.9432 7.93478 39.9432 0.92155 41.9017ZM22.9631 41.9017V39.8994C29.9716 37.8971 37.0747 37.8874 44.0832 39.8994V41.9017C37.0747 39.9432 29.9716 39.9432 22.9631 41.9017Z" fill="url(#paint13_linear_371_1526)"/>
</g>
<defs>
<linearGradient id="paint0_linear_371_1526" x1="24.839" y1="34.9908" x2="42.202" y2="34.9908" gradientUnits="userSpaceOnUse">
<stop stop-color="#FCCB00"/>
<stop offset="0.25" stop-color="#FFFAD2"/>
<stop offset="0.3" stop-color="#F9F0C0"/>
<stop offset="0.39" stop-color="#ECD893"/>
<stop offset="0.51" stop-color="#D7B14C"/>
<stop offset="0.6" stop-color="#C9961A"/>
<stop offset="0.81" stop-color="#E9CD75"/>
<stop offset="0.87" stop-color="#F2DC8E"/>
<stop offset="1" stop-color="#FFFAD2"/>
</linearGradient>
<linearGradient id="paint1_linear_371_1526" x1="28.2803" y1="31.9387" x2="37.0894" y2="31.9387" gradientUnits="userSpaceOnUse">
<stop stop-color="#FCCB00"/>
<stop offset="0.25" stop-color="#FFFAD2"/>
<stop offset="0.3" stop-color="#F9F0C0"/>
<stop offset="0.39" stop-color="#ECD893"/>
<stop offset="0.51" stop-color="#D7B14C"/>
<stop offset="0.6" stop-color="#C9961A"/>
<stop offset="0.81" stop-color="#E9CD75"/>
<stop offset="0.87" stop-color="#F2DC8E"/>
<stop offset="1" stop-color="#FFFAD2"/>
</linearGradient>
<linearGradient id="paint2_linear_371_1526" x1="24.8345" y1="32.5413" x2="27.3062" y2="32.5413" gradientUnits="userSpaceOnUse">
<stop stop-color="#FCCB00"/>
<stop offset="0.25" stop-color="#FFFAD2"/>
<stop offset="0.3" stop-color="#F9F0C0"/>
<stop offset="0.39" stop-color="#ECD893"/>
<stop offset="0.51" stop-color="#D7B14C"/>
<stop offset="0.6" stop-color="#C9961A"/>
<stop offset="0.81" stop-color="#E9CD75"/>
<stop offset="0.87" stop-color="#F2DC8E"/>
<stop offset="1" stop-color="#FFFAD2"/>
</linearGradient>
<linearGradient id="paint3_linear_371_1526" x1="11.7431" y1="13.0964" x2="19.3471" y2="13.0964" gradientUnits="userSpaceOnUse">
<stop stop-color="#FCCB00"/>
<stop offset="0.25" stop-color="#FFFAD2"/>
<stop offset="0.3" stop-color="#F9F0C0"/>
<stop offset="0.39" stop-color="#ECD893"/>
<stop offset="0.51" stop-color="#D7B14C"/>
<stop offset="0.6" stop-color="#C9961A"/>
<stop offset="0.81" stop-color="#E9CD75"/>
<stop offset="0.87" stop-color="#F2DC8E"/>
<stop offset="1" stop-color="#FFFAD2"/>
</linearGradient>
<linearGradient id="paint4_linear_371_1526" x1="8.37826" y1="9.80152" x2="10.5427" y2="9.80152" gradientUnits="userSpaceOnUse">
<stop stop-color="#FCCB00"/>
<stop offset="0.25" stop-color="#FFFAD2"/>
<stop offset="0.3" stop-color="#F9F0C0"/>
<stop offset="0.39" stop-color="#ECD893"/>
<stop offset="0.51" stop-color="#D7B14C"/>
<stop offset="0.6" stop-color="#C9961A"/>
<stop offset="0.81" stop-color="#E9CD75"/>
<stop offset="0.87" stop-color="#F2DC8E"/>
<stop offset="1" stop-color="#FFFAD2"/>
</linearGradient>
<linearGradient id="paint5_linear_371_1526" x1="8.38306" y1="16.4741" x2="19.3471" y2="16.4741" gradientUnits="userSpaceOnUse">
<stop stop-color="#FCCB00"/>
<stop offset="0.25" stop-color="#FFFAD2"/>
<stop offset="0.3" stop-color="#F9F0C0"/>
<stop offset="0.39" stop-color="#ECD893"/>
<stop offset="0.51" stop-color="#D7B14C"/>
<stop offset="0.6" stop-color="#C9961A"/>
<stop offset="0.81" stop-color="#E9CD75"/>
<stop offset="0.87" stop-color="#F2DC8E"/>
<stop offset="1" stop-color="#FFFAD2"/>
</linearGradient>
<linearGradient id="paint6_linear_371_1526" x1="8.38306" y1="20.406" x2="19.3471" y2="20.406" gradientUnits="userSpaceOnUse">
<stop stop-color="#FCCB00"/>
<stop offset="0.25" stop-color="#FFFAD2"/>
<stop offset="0.3" stop-color="#F9F0C0"/>
<stop offset="0.39" stop-color="#ECD893"/>
<stop offset="0.51" stop-color="#D7B14C"/>
<stop offset="0.6" stop-color="#C9961A"/>
<stop offset="0.81" stop-color="#E9CD75"/>
<stop offset="0.87" stop-color="#F2DC8E"/>
<stop offset="1" stop-color="#FFFAD2"/>
</linearGradient>
<linearGradient id="paint7_linear_371_1526" x1="14.3333" y1="25.5429" x2="19.3475" y2="25.5429" gradientUnits="userSpaceOnUse">
<stop stop-color="#FCCB00"/>
<stop offset="0.25" stop-color="#FFFAD2"/>
<stop offset="0.3" stop-color="#F9F0C0"/>
<stop offset="0.39" stop-color="#ECD893"/>
<stop offset="0.51" stop-color="#D7B14C"/>
<stop offset="0.6" stop-color="#C9961A"/>
<stop offset="0.81" stop-color="#E9CD75"/>
<stop offset="0.87" stop-color="#F2DC8E"/>
<stop offset="1" stop-color="#FFFAD2"/>
</linearGradient>
<linearGradient id="paint8_linear_371_1526" x1="14.3333" y1="29.4648" x2="19.3475" y2="29.4648" gradientUnits="userSpaceOnUse">
<stop stop-color="#FCCB00"/>
<stop offset="0.25" stop-color="#FFFAD2"/>
<stop offset="0.3" stop-color="#F9F0C0"/>
<stop offset="0.39" stop-color="#ECD893"/>
<stop offset="0.51" stop-color="#D7B14C"/>
<stop offset="0.6" stop-color="#C9961A"/>
<stop offset="0.81" stop-color="#E9CD75"/>
<stop offset="0.87" stop-color="#F2DC8E"/>
<stop offset="1" stop-color="#FFFAD2"/>
</linearGradient>
<linearGradient id="paint9_linear_371_1526" x1="8.38281" y1="23.9878" x2="12.9386" y2="23.9878" gradientUnits="userSpaceOnUse">
<stop stop-color="#FCCB00"/>
<stop offset="0.25" stop-color="#FFFAD2"/>
<stop offset="0.3" stop-color="#F9F0C0"/>
<stop offset="0.39" stop-color="#ECD893"/>
<stop offset="0.51" stop-color="#D7B14C"/>
<stop offset="0.6" stop-color="#C9961A"/>
<stop offset="0.81" stop-color="#E9CD75"/>
<stop offset="0.87" stop-color="#F2DC8E"/>
<stop offset="1" stop-color="#FFFAD2"/>
</linearGradient>
<linearGradient id="paint10_linear_371_1526" x1="23.7954" y1="15.3613" x2="43.2472" y2="15.3613" gradientUnits="userSpaceOnUse">
<stop stop-color="#FCCB00"/>
<stop offset="0.25" stop-color="#FFFAD2"/>
<stop offset="0.3" stop-color="#F9F0C0"/>
<stop offset="0.39" stop-color="#ECD893"/>
<stop offset="0.51" stop-color="#D7B14C"/>
<stop offset="0.6" stop-color="#C9961A"/>
<stop offset="0.81" stop-color="#E9CD75"/>
<stop offset="0.87" stop-color="#F2DC8E"/>
<stop offset="1" stop-color="#FFFAD2"/>
</linearGradient>
<linearGradient id="paint11_linear_371_1526" x1="26.0539" y1="11.8183" x2="27.0889" y2="11.8183" gradientUnits="userSpaceOnUse">
<stop stop-color="#FCCB00"/>
<stop offset="0.25" stop-color="#FFFAD2"/>
<stop offset="0.3" stop-color="#F9F0C0"/>
<stop offset="0.39" stop-color="#ECD893"/>
<stop offset="0.51" stop-color="#D7B14C"/>
<stop offset="0.6" stop-color="#C9961A"/>
<stop offset="0.81" stop-color="#E9CD75"/>
<stop offset="0.87" stop-color="#F2DC8E"/>
<stop offset="1" stop-color="#FFFAD2"/>
</linearGradient>
<linearGradient id="paint12_linear_371_1526" x1="26.1338" y1="6.54035" x2="31.3607" y2="6.54035" gradientUnits="userSpaceOnUse">
<stop stop-color="#FCCB00"/>
<stop offset="0.25" stop-color="#FFFAD2"/>
<stop offset="0.3" stop-color="#F9F0C0"/>
<stop offset="0.39" stop-color="#ECD893"/>
<stop offset="0.51" stop-color="#D7B14C"/>
<stop offset="0.6" stop-color="#C9961A"/>
<stop offset="0.81" stop-color="#E9CD75"/>
<stop offset="0.87" stop-color="#F2DC8E"/>
<stop offset="1" stop-color="#FFFAD2"/>
</linearGradient>
<linearGradient id="paint13_linear_371_1526" x1="0" y1="23.1957" x2="45" y2="23.1957" gradientUnits="userSpaceOnUse">
<stop stop-color="#FCCB00"/>
<stop offset="0.25" stop-color="#FFFAD2"/>
<stop offset="0.3" stop-color="#F9F0C0"/>
<stop offset="0.39" stop-color="#ECD893"/>
<stop offset="0.51" stop-color="#D7B14C"/>
<stop offset="0.6" stop-color="#C9961A"/>
<stop offset="0.81" stop-color="#E9CD75"/>
<stop offset="0.87" stop-color="#F2DC8E"/>
<stop offset="1" stop-color="#FFFAD2"/>
</linearGradient>
<clipPath id="clip0_371_1526">
<rect width="45" height="42" fill="white" transform="translate(0 1)"/>
</clipPath>
</defs>
</svg>
