<svg width="12" height="15" viewBox="0 0 12 15" fill="none" xmlns="http://www.w3.org/2000/svg">
<g clip-path="url(#clip0_290_477)">
<path d="M5.5 1.07983C2.46843 1.07983 0 3.40257 0 6.26698C0 8.44283 2.9471 11.8856 4.68345 13.731C4.89932 13.9697 5.19027 14.0798 5.5 14.0798C5.80973 14.0798 6.0913 13.9513 6.31655 13.731C8.0529 11.8764 11 8.43365 11 6.26698C11 3.40257 8.54096 1.07983 5.5 1.07983ZM5.58447 13.0883C5.58447 13.0883 5.47184 13.1342 5.40614 13.0883C3.2756 10.8023 0.985495 7.8369 0.985495 6.26698C0.985495 3.94424 3.0128 2.04382 5.5 2.04382C7.9872 2.04382 10.0051 3.93506 10.0051 6.2578C10.0051 7.82771 7.71502 10.8023 5.58447 13.0791V13.0883Z" fill="url(#paint0_linear_290_477)"/>
<path d="M5.5 4.07983C4.11765 4.07983 3 5.20069 3 6.56521C3 7.92974 4.12745 9.07983 5.5 9.07983C6.87255 9.07983 8 7.95898 8 6.59445C8 5.22993 6.87255 4.07983 5.5 4.07983ZM5.5 8.05644C4.67647 8.05644 4.02941 7.39367 4.02941 6.59445C4.02941 5.79523 4.69608 5.13247 5.5 5.13247C6.30392 5.13247 6.97059 5.79523 6.97059 6.59445C6.97059 7.39367 6.32353 8.05644 5.5 8.05644Z" fill="url(#paint1_linear_290_477)"/>
</g>
<defs>
<linearGradient id="paint0_linear_290_477" x1="0" y1="7.57983" x2="11" y2="7.57983" gradientUnits="userSpaceOnUse">
<stop stop-color="#FCCB00"/>
<stop offset="0.25" stop-color="#FFFAD2"/>
<stop offset="0.3" stop-color="#F9F0C0"/>
<stop offset="0.39" stop-color="#ECD893"/>
<stop offset="0.51" stop-color="#D7B14C"/>
<stop offset="0.6" stop-color="#C9961A"/>
<stop offset="0.81" stop-color="#E9CD75"/>
<stop offset="0.87" stop-color="#F2DC8E"/>
<stop offset="1" stop-color="#FFFAD2"/>
</linearGradient>
<linearGradient id="paint1_linear_290_477" x1="2.9902" y1="6.57496" x2="8" y2="6.57496" gradientUnits="userSpaceOnUse">
<stop stop-color="#FCCB00"/>
<stop offset="0.25" stop-color="#FFFAD2"/>
<stop offset="0.3" stop-color="#F9F0C0"/>
<stop offset="0.39" stop-color="#ECD893"/>
<stop offset="0.51" stop-color="#D7B14C"/>
<stop offset="0.6" stop-color="#C9961A"/>
<stop offset="0.81" stop-color="#E9CD75"/>
<stop offset="0.87" stop-color="#F2DC8E"/>
<stop offset="1" stop-color="#FFFAD2"/>
</linearGradient>
<clipPath id="clip0_290_477">
<rect width="11.72" height="14.16" fill="white" transform="translate(0 0.419922)"/>
</clipPath>
</defs>
</svg>
