<svg width="188" height="45" viewBox="0 0 188 45" fill="none" xmlns="http://www.w3.org/2000/svg">
<path d="M90.0604 40.1173H76.6621V21.7109L64.4852 9.97693L58.3994 15.6476L64.4383 21.4229V40.1163H51.2068V21.4198L57.4105 15.6404L45.0626 3.83075L32.8377 15.9542L39.0925 22.088V40.1173H25.474V22.3004L31.8707 15.9574L25.8162 10.0204L13.3295 22.3708V40.1184H0V39.4409H12.6473V22.089L25.8131 9.06634L32.3516 15.4788L45.0532 2.88184L57.9081 15.1773L64.4936 9.04148L77.3443 21.424V39.4398H90.0604V40.1173ZM51.888 39.4398H63.756V21.712L57.9018 16.1117L51.889 21.7151V39.4409L51.888 39.4398ZM26.1552 39.4398H38.4103V22.3708L32.3547 16.4328L26.1552 22.5811V39.4409V39.4398Z" fill="url(#paint0_linear_290_466)"/>
<path d="M122.654 22.8894C122.654 30.8624 116.52 37.5673 108.955 37.5673C101.389 37.5673 95.2559 30.8635 95.2559 22.8894C95.2559 14.9153 101.389 8.21143 108.955 8.21143C116.52 8.21143 122.654 14.9163 122.654 22.8894ZM120.491 22.8894C120.491 15.315 115.326 8.93339 108.955 8.93339C102.584 8.93339 97.4192 15.315 97.4192 22.8894C97.4192 30.4638 102.584 36.8453 108.955 36.8453C115.326 36.8453 120.491 30.4638 120.491 22.8894Z" fill="white"/>
<path d="M136.765 36.6045V37.3265H125.95V8.4519H128.114V36.6045H136.766H136.765Z" fill="white"/>
<path d="M139.504 37.3265V8.4519H141.667V37.3265H139.504Z" fill="white"/>
<path d="M165.358 8.4519V37.3265H163.194V11.0771L155.984 37.3265H153.821L146.611 11.0771V37.3265H145.89V8.4519H148.053L155.624 36.0133L163.194 8.4519H165.358Z" fill="white"/>
<path d="M183.999 14.9486C183.999 18.5092 181.137 21.4013 177.591 21.4453H171.742V37.3265H169.579V8.4519H177.591V8.454C181.138 8.4969 183.999 11.3879 183.999 14.9486ZM181.837 14.9486C181.837 11.7949 179.943 9.23352 177.591 9.17597V9.17283H171.742V20.7222H177.591V20.7191C179.943 20.6615 181.837 18.1001 181.837 14.9465V14.9486Z" fill="white"/>
<defs>
<linearGradient id="paint0_linear_290_466" x1="0" y1="21.4996" x2="90.0604" y2="21.4996" gradientUnits="userSpaceOnUse">
<stop stop-color="#FCCB00"/>
<stop offset="0.25" stop-color="#FFFAD2"/>
<stop offset="0.3" stop-color="#F9F0C0"/>
<stop offset="0.39" stop-color="#ECD893"/>
<stop offset="0.51" stop-color="#D7B14C"/>
<stop offset="0.6" stop-color="#C9961A"/>
<stop offset="0.81" stop-color="#E9CD75"/>
<stop offset="0.87" stop-color="#F2DC8E"/>
<stop offset="1" stop-color="#FFFAD2"/>
</linearGradient>
</defs>
</svg>
