<svg width="24" height="24" viewBox="0 0 24 24" fill="none" xmlns="http://www.w3.org/2000/svg">
<path d="M6.83973 11.29C8.27973 14.12 10.5997 16.44 13.4297 17.88L15.6297 15.68C15.9097 15.4 16.2997 15.32 16.6497 15.43C17.7697 15.8 18.9697 16 20.2197 16C20.4897 16 20.7397 16.11 20.9297 16.29C21.1197 16.47 21.2197 16.73 21.2197 17V20.5C21.2197 20.77 21.1097 21.02 20.9297 21.21C20.7497 21.4 20.4897 21.5 20.2197 21.5C15.7097 21.5 11.3897 19.71 8.19973 16.52C5.00973 13.33 3.21973 9.01 3.21973 4.5C3.21973 4.23 3.32973 3.98 3.50973 3.79C3.69973 3.6 3.94973 3.5 4.21973 3.5H7.71973C7.98973 3.5 8.23973 3.61 8.42973 3.79C8.61973 3.98 8.71973 4.23 8.71973 4.5C8.71973 5.75 8.91973 6.95 9.28973 8.07C9.39973 8.42 9.31973 8.81 9.03973 9.09L6.83973 11.29Z" fill="url(#paint0_linear_143_73)"/>
<defs>
<linearGradient id="paint0_linear_143_73" x1="3.21973" y1="12.5" x2="21.2197" y2="12.5" gradientUnits="userSpaceOnUse">
<stop stop-color="#FCCB00"/>
<stop offset="0.25" stop-color="#FFFAD2"/>
<stop offset="0.3" stop-color="#F9F0C0"/>
<stop offset="0.39" stop-color="#ECD893"/>
<stop offset="0.51" stop-color="#D7B14C"/>
<stop offset="0.6" stop-color="#C9961A"/>
<stop offset="0.81" stop-color="#E9CD75"/>
<stop offset="0.87" stop-color="#F2DC8E"/>
<stop offset="1" stop-color="#FFFAD2"/>
</linearGradient>
</defs>
</svg>
